<?xml version="1.0" encoding="utf-8"?>
<!-- Generator: Adobe Illustrator 23.0.1, SVG Export Plug-In . SVG Version: 6.00 Build 0)  -->
<svg version="1.1" id="Layer_1" xmlns="http://www.w3.org/2000/svg" xmlns:xlink="http://www.w3.org/1999/xlink" x="0px" y="0px"
	 viewBox="0 0 1031.54 1225.08" style="enable-background:new 0 0 1031.54 1225.08;" xml:space="preserve">
<g>
	<path d="M516.97,29.74c102.49,0.01,204.98,0.14,307.46-0.16c13.29-0.04,25.89,2.25,38.28,6.32c15.09,4.96,30.08,10.23,44.97,15.74
		c14.25,5.28,28.31,11.08,42.48,16.58c9.61,3.73,19.3,7.23,28.89,11.02c3.46,1.36,5.27,3.74,5.27,8.01
		c-0.11,206.31-0.07,412.63-0.22,618.94c0,6.5-1.96,12.99-2.84,19.51c-1.41,10.44-3.35,20.87-3.85,31.36
		c-0.69,14.49-4.72,28.12-8.83,41.8c-7.82,26.02-17.89,51.02-31.16,74.87c-12.47,22.4-26.91,43.37-43.18,62.99
		c-9.59,11.57-20.79,21.88-31.85,32.12c-11.16,10.34-22.66,20.42-34.73,29.67c-10.96,8.4-22.83,15.63-34.4,23.23
		c-17.33,11.38-34.7,22.72-52.15,33.92c-15.24,9.78-30.61,19.37-45.94,29.01c-25.53,16.06-51.01,32.19-76.62,48.12
		c-25.9,16.11-51.95,31.98-77.9,48.02c-6.86,4.24-13.6,8.67-20.34,13.08c-3.08,2.02-5.92,2.25-9.21,0.2
		c-20.77-12.97-41.66-25.75-62.42-38.73c-19.39-12.12-38.63-24.46-58.01-36.6c-16.61-10.4-33.35-20.61-49.99-30.96
		c-21.24-13.21-42.57-26.27-63.61-39.8c-15.63-10.06-30.89-20.7-46.22-31.21c-12.92-8.86-25.84-17.76-38.51-26.97
		c-5.74-4.17-11.14-8.89-16.25-13.82c-11.94-11.56-24.22-22.86-35.21-35.29c-10.01-11.33-19.03-23.64-27.53-36.17
		c-14.49-21.39-27.83-43.62-36.89-67.89c-7.55-20.23-13.74-40.98-19.89-61.69c-1.89-6.37-1.58-13.38-2.38-20.08
		c-1.1-9.14-2.33-18.25-3.44-27.39c-1.22-9.96-3.38-19.92-3.39-29.89c-0.2-198.48-0.16-396.96-0.11-595.44
		c0-5.12,0.5-10.26,1.09-15.36c0.46-3.95,2.94-6.38,6.72-7.79c29.02-10.78,57.95-21.81,87.04-32.39
		c15.38-5.59,30.97-10.62,46.6-15.49c4.02-1.25,8.52-1.32,12.79-1.33C306.66,29.72,411.82,29.73,516.97,29.74z M953.23,632.85
		c0-1.8,0-2.78,0-3.77c0.33-110.13,0.73-220.25,0.96-330.38c0.14-64,0.02-127.99,0.03-191.99c0-1.67-0.46-3.54,0.14-4.96
		c2.2-5.18-0.94-6.62-4.88-8.1C931.25,86.84,913.08,79.8,894.83,73c-23.2-8.63-46.58-13.79-71.97-13.71
		c-212.32,0.73-424.64,0.41-636.97,0.42c-1.82,0-3.76-0.19-5.44,0.34c-11.88,3.73-23.83,7.3-35.54,11.54
		c-20.81,7.52-41.46,15.46-62.16,23.28c-3.57,1.35-5.63,3.86-5.55,7.94c0.11,5.49-0.03,10.99,0.03,16.48
		c0.78,69.09,0.17,138.17,1.49,207.28c1.92,100.29,0.51,200.65,0.44,300.98c0,3.81,0.21,6.24,5.14,6.23
		c84.49-0.12,168.99-0.05,253.48-0.14c13.96-0.01,27.91-0.8,41.86-0.83c10.54-0.03,21.08,0.73,31.62,0.86
		c13.11,0.16,26.23,0.15,39.34,0.01c13.24-0.14,26.47-0.78,39.71-0.75c18.75,0.04,37.49,0.62,56.24,0.75
		c21.29,0.14,42.59,0.03,63.88,0.03c111.33,0,222.65,0.01,333.98-0.03C947.2,633.68,949.98,633.17,953.23,632.85z M953.22,675.34
		c0-9,0-18,0-26.99c0-6.69,0.01-6.6-6.4-5.85c-2.63,0.31-5.32,0.17-7.99,0.16c-19.97-0.07-39.94-0.18-59.91-0.23
		c-36.46-0.08-72.92-0.18-109.38-0.18c-21.77,0-43.54,0.34-65.31,0.27c-34.47-0.11-68.93-0.51-103.4-0.66
		c-17.56-0.07-35.12,0.11-52.68,0.24c-12.92,0.09-25.83,0.44-38.75,0.39c-15.75-0.07-31.51-0.66-47.26-0.64
		c-31.12,0.04-62.23,0.39-93.35,0.53c-11.26,0.05-22.53-0.19-33.79-0.21c-26.99-0.05-53.98-0.08-80.98-0.08
		c-33.94,0.01-67.87,0.12-101.81,0.07c-22.89-0.04-45.77-0.32-68.66-0.4c-3.34-0.01-5.8,1.11-5.02,5.41
		c0.53,2.91,0.56,5.93,0.63,8.91c0.56,24.51-1.59,49.09,2.95,73.48c2.22,11.92,2.89,24.14,5.19,36.05
		c6.8,35.16,20.28,67.91,38.52,98.54c9.83,16.51,20.72,32.51,32.42,47.76c15.11,19.69,33.12,36.91,52.96,51.74
		c23.78,17.76,48.18,34.78,73.1,50.91c39.34,25.45,79.29,49.97,119.08,74.74c35.3,21.97,70.8,43.61,106.02,65.72
		c5.29,3.32,9.12,2.88,13.94-0.4c10.07-6.86,20.34-13.42,30.68-19.85c21.09-13.1,42.34-25.94,63.41-39.05
		c23.62-14.69,47.17-29.49,70.66-44.38c23.75-15.06,47.47-30.17,71.04-45.51c16.96-11.04,34.2-21.78,50.31-33.98
		c16.05-12.16,31.24-25.55,46.04-39.24c7.69-7.12,13.91-15.88,20.43-24.19c15.39-19.6,29.5-40.14,40.11-62.71
		c7.94-16.9,14.64-34.43,21.1-51.96c4.75-12.88,8.74-26.08,9.2-40.08c0.21-6.41,1.33-12.79,2.17-19.17
		c2.09-15.84,5.84-31.5,4.75-47.67C953.01,683.02,953.22,679.17,953.22,675.34z"/>
	<path d="M401.68,431.13c0.51,1.7,1.46,3.41,1.44,5.1c-0.03,3.47-0.61,6.94-0.89,10.42c-0.36,4.53-0.41,8.71,4.59,11.42
		c1.73,0.94,2.46,3.95,3.36,6.13c0.87,2.1,1.37,4.35,2.03,6.54c0.65-0.12,1.29-0.24,1.94-0.36c-0.22-2.78-0.33-5.58-0.68-8.35
		c-0.38-2.98,0.16-5.02,3.77-4.3c4.49,0.89,9.03,1.64,13.42,2.92c8.05,2.35,15.35-0.26,22.29-3.55c3.34-1.58,4.41-0.71,6.39,1.7
		c5.91,7.2,9.72,15.15,9.93,24.77c4.82-1.27,4.95-5.01,4.78-8.34c-0.37-7.25-1.19-14.47-1.88-21.7c-0.25-2.6-0.76-5.17-0.91-7.77
		c-0.07-1.17,0.45-2.37,0.7-3.55c1.03,0.33,2.09,0.59,3.08,1.01c2.23,0.93,5.4,3.33,6.41,2.62c1.86-1.32,2.47-4.44,3.54-6.83
		c0.2-0.44,0.2-0.98,0.21-1.47c0.05-2.38,0.08-4.77,0.11-7.15c-2.21,0.11-4.47,0.59-6.6,0.23c-3.18-0.53-6.28-1.59-9.37-2.55
		c-2.15-0.67-4.22-2.14-6.36-2.22c-3.16-0.12-5.34-0.73-6.69-3.93c-0.46-1.08-2.59-2.15-3.88-2.07c-6.58,0.41-13.17,1.03-19.7,1.96
		c-2.34,0.33-4.52,1.73-6.78,2.65c-1.22-5.95,1.07-10.07,5.57-13.92c7.57-6.47,15.89-9.69,25.86-8.94c1.46,0.11,3.62-1.04,4.48-2.29
		c2.75-3.95,5.43-3.22,8.71-0.85c2.09,1.52,4.42,2.82,6.82,3.75c1.45,0.56,3.96,0.99,4.77,0.21c6.82-6.62,19.15-8.29,19.28-20.96
		c0.03-2.9-0.26-5.8-0.47-9.97c-4.15,2.76-6.66,5.03-9.62,6.25c-4.19,1.73-8.73,2.61-13.08,3.99c-4.32,1.37-8.63,2.81-12.86,4.44
		c-1.81,0.7-3.33,2.16-5.13,2.9c-5.21,2.15-10.52-1.59-9.88-7.1c0.53-4.51-1.72-6.04-5.62-6.23c-2.33-0.11-4.71,0.23-6.99-0.12
		c-2.26-0.35-4.44-1.3-6.65-1.99c0.05-0.7,0.1-1.4,0.15-2.1c5.94-0.59,11.86-1.42,17.82-1.69c3.41-0.16,6.06-0.74,8.98-2.99
		c2.06-1.59,6.03-0.67,9.14-0.94c3.97-0.34,7.94-0.7,11.89-1.15c1.94-0.22,3.94-1.23,5.75-0.92c8.56,1.45,12.98-4.04,16.64-10.07
		c4.26-7.02,5.03-14.6,0.28-21.82c-1.47-2.23-3.97-3.79-6.33-5.96c1.22-2.64,2.6-5.61,4.02-8.66c-16.16,1.17-29.38,8.86-43.24,14.79
		c-2.8,1.2-5.98,1.52-8.81,2.68c-4.35,1.79-8.49,4.09-12.82,5.92c-3.53,1.49-7.17,3.45-10.85,3.66c-3.72,0.21-4.68-3.02-1.89-5.69
		c2.34-2.25,4.93-4.75,7.89-5.75c10.7-3.64,19.88-12.28,32.41-10.16c1,0.17,2.76-0.19,3.13-0.87c2.55-4.69,7.75-4.43,11.48-6.69
		c6.68-4.06,12.61-9.42,18.58-14.54c1.11-0.95,0.98-3.35,1.44-5.07c0.39-1.44,0.6-3.94,1.28-4.08c1.6-0.33,3.73,0.03,5.08,0.94
		c1.08,0.73,2.24,3.19,1.79,4.01c-2.51,4.56-0.33,7.06,2.99,9.9c2.44,2.08,3.34,4.81,2.66,8.76c-0.59,3.43,1.53,7.56,3.13,11.06
		c2.4,5.24,5.39,10.21,8.65,16.26c-2.09,3.53-2.57,8.52-1.05,14.16c0.81,3-1,6.63-1.23,10c-0.25,3.7-0.05,7.44-0.04,11.16
		c0.01,1.65,0.04,3.31,0.05,4.96c0.01,2.97,0,5.95,0,8.92c0.55,0.35,1.11,0.69,1.66,1.04c4.17-4.27,8.42-8.47,12.47-12.85
		c2.7-2.91,4.88-6.33,7.72-9.08c3.25-3.15,4.65-6.78,4.21-11.12c-0.6-5.92-0.33-12.25-2.46-17.6c-2.3-5.79-6.82-10.73-10.58-15.88
		c-2.73-3.74-5.91-7.15-8.73-10.83c-5.31-6.93-5.35-14.86-3.09-22.67c1.06-3.66,1.24-6.41-1.6-8.95
		c-4.18-3.72-8.46-7.33-12.63-11.06c-0.78-0.7-1.22-1.78-1.82-2.69c0.23-0.39,0.46-0.78,0.68-1.17c2.57,1.08,5.24,1.98,7.7,3.28
		c15.71,8.33,27.8,21.04,40.77,32.85c10.33,9.41,14.33,22.65,22.91,32.84c5.23,6.2,5.44,13.49,7.22,20.56c0.5,2,1.56,3.96,2.74,5.68
		c6.45,9.44,8.45,20.5,11.48,31.18c2.95,10.37,6.17,20.71,8.35,31.25c2.55,12.35,3.69,24.98,6.21,37.34
		c3.53,17.34,2.79,34.92,1.34,52.11c-1.14,13.56-0.89,27.64-5.7,40.85c-2.34,6.43-4.91,12.91-6.08,19.6
		c-1.53,8.72-1.99,17.66-2.37,26.53c-0.05,1.21,2.85,3.27,4.66,3.64c2.09,0.43,4.54-0.37,6.72-1.02c3.35-0.99,3.32-3.99,1.94-6.01
		c-4.06-5.91-4.52-12.62-5.29-19.33c-0.46-3.95,1.95-6.69,6.01-6.24c6.69,0.76,13.36,1.74,19.97,2.99c0.84,0.16,2.16,2.98,1.74,3.78
		c-4.28,8.13,0.16,15.06,3.11,21.98c0.79,1.86,4.2,3.8,6.31,3.7c9.39-0.47,18.76-1.55,28.09-2.76c1.4-0.18,3.33-2.06,3.7-3.49
		c1.83-7.1,2.27-14.23-1.39-21.05c-1.88-3.49-0.83-5.56,3.26-5.32c14.02,0.81,26.58-3.34,38.36-10.67c1.48-0.92,3.87-0.37,5.84-0.51
		c-0.65,1.76-0.92,3.81-2.02,5.22c-1.99,2.56-2.04,4.84,0.82,6.14c4.88,2.22,9.95,4.07,15.07,5.67c1.28,0.4,3.55-0.23,4.48-1.22
		c7.78-8.28,16.26-16.22,18.45-28.11c0.71-3.86,1.06-7.94,0.58-11.79c-0.14-1.14-3.9-2.9-5.64-2.55
		c-5.25,1.03-10.37,2.78-15.43,4.58c-2.85,1.01-4.04,0.11-4.48-2.57c-0.05-0.33-0.12-0.69-0.04-0.99
		c2.79-10.15-3.51-17.96-6.81-26.54c-1.36-3.53-3.12-6.93-4.13-10.55c-0.61-2.2-0.11-4.7-0.11-7.06c0.73-0.13,1.45-0.26,2.18-0.39
		c1.24,2.73,2.52,5.45,3.72,8.2c0.72,1.66,1.13,3.48,2,5.06c2.4,4.36,5.19,4.1,8.09-0.71c1.82,0.33,3.67,0.66,6.33,1.14
		c-0.79-1.93-1.04-3.24-1.77-4.19c-2.35-3.06-2.95-5.25,1.49-7.17c3.66-1.59,6.41-10.39,5.08-14.32c-0.32-0.93-0.96-1.82-1.03-2.76
		c-0.13-1.75-0.42-4.85,0.2-5.07c2.93-1.06,3.72,1.42,4.63,3.66c1.15,2.82,2.8,5.44,3.91,8.28c3.13,8.05,6.19,16.13,9.1,24.26
		c2.15,6,4.06,12.09,5.98,18.17c2.7,8.55-1.72,16.1-3.56,24.01c-0.59,2.53-1.56,4.98-2.4,7.45c-0.67,1.99-0.93,4.35-2.17,5.89
		c-11.3,14.07-23.12,27.72-39.46,36.18c-4.88,2.53-10.49,3.73-15.85,5.2c-7.1,1.95-14.25,3.71-21.44,5.28
		c-4.01,0.87-8.13,1.2-12.21,1.75c-14.02,1.9-28.05,3.72-42.06,5.71c-9.26,1.31-18.53,2.61-27.71,4.36
		c-20.67,3.94-41.61,3-62.44,3.49c-7.62,0.18-15.28-2.49-22.96-2.73c-10.17-0.31-20.38,0.62-30.58,0.76
		c-7.49,0.11-14.73,1.83-22.55,0.07c-8.76-1.97-18.14-1.03-27.22-1.69c-5.65-0.41-11.24-1.63-16.89-2.15
		c-5.44-0.5-10.92-0.58-16.38-0.8c-0.64-0.03-1.6-0.02-1.89,0.36c-5.62,7.41-13.85,5.05-21.2,5.56c-8.48,0.58-17.08,1.51-25.46,0.64
		c-5.35-0.55-11.13-3.17-15.36-6.56c-4.33-3.47-5.25-9.24-3.23-15.07c1.53-4.41,8.6-9.03,14.17-8.22c-1.78,5.29-4,9.92-10.79,12.53
		c3.13,2.25,5.34,3.84,7.04,5.06c1.85-3.4,3.22-6.17,4.86-8.77c0.37-0.59,2.17-1.07,2.45-0.77c0.69,0.71,1.47,2.21,1.15,2.86
		c-1.04,2.1-2.17,4.53-3.99,5.8c-2.93,2.04-2.72,4.17-0.11,5.09c2.41,0.85,5.61,0.44,8.11-0.43c0.99-0.35,1.06-3.42,1.5-5.26
		c1-4.12,1.71-8.34,3.12-12.3c0.37-1.02,2.93-1.26,4.48-1.86c0.15,1.48,0.7,3.07,0.37,4.43c-0.75,3.02-2.25,5.87-2.85,8.91
		c-0.38,1.95-0.42,4.7,0.67,6.06c2.14,2.66,5.46,4.12,8.78,1.87c1.98-1.34,3.98-3.2,4.98-5.3c2.15-4.52,3.44-9.45,5.56-13.99
		c0.52-1.1,2.9-1.33,4.42-1.96c0.12,1.79,0.69,3.72,0.22,5.35c-0.47,1.64-2.81,2.99-2.82,4.48c-0.02,2.54,0.32,6.01,1.95,7.46
		c3.59,3.18,7.83,1.38,11.24-1.06c5.93-4.24,10.86-8.61,11.06-17.39c0.12-5.2,4.69-10.28,7.16-15.46
		c3.46-7.24,6.6-14.64,10.28-21.76c5.55-10.73,11.42-21.29,17.22-31.88c1.03-1.87,2.44-3.53,3.57-5.35
		c7.05-11.31,6.84-12.51-0.65-23.37c-2.76-4.01-4.54-8.7-6.79-13.06c-2.32-4.49-5.96-6.86-11.07-7c-3.58-0.1-6.77,0.14-6.41,6.26
		c-3.68-5.4-8.54-8.66-12.92-6.37c-3.82,2-5.88,7.37-9.51,12.33c-0.54-2.41-1.44-4.37-1.31-6.25c0.44-6-1.45-11.1-5.31-15.52
		c-0.88-1.01-2.34-1.52-3.53-2.26c-0.75,1.35-1.72,2.63-2.18,4.08c-0.33,1.04-0.02,2.3,0.12,3.45c0.71,5.82,1.6,11.63,2.16,17.46
		c0.62,6.41,1.34,12.84,1.26,19.26c-0.04,3.78-1.73,7.51-2.35,11.32c-0.84,5.18-4.65,9.07-4.68,14.99
		c-0.03,6.85-2.78,13.79-4.93,20.5c-2.29,7.16-5.11,14.16-8.05,21.08c-0.68,1.6-2.78,2.58-4.23,3.85c-0.75-1.78-2.16-3.58-2.13-5.34
		c0.08-4.5,1.25-8.98,4.88-11.94c5.83-4.76,6.34-11.53,6.71-17.95c0.55-9.66,3.41-18,10.06-25.1c0.94-1.01,1.42-3.2,1.06-4.56
		c-2.17-8.19-2.31-17.08-7.67-24.2c-1.17-1.55-2.97-3.17-4.76-3.62c-7.46-1.88-15.03-3.33-22.57-4.94
		c-0.16-0.03-0.33-0.08-0.49-0.09c-11.61-0.96-12.72,0.1-11.38,11.89c1.26,11.07,4.37,21.96,7.17,32.8
		c0.93,3.58,3.32,6.81,5.21,10.11c6.85,11.94,9.52,24.67,6.32,38.14c-0.77,3.23-2.28,7.57-7.87,6.79c1.22-4.32,2.53-8.39,3.5-12.55
		c1.29-5.5-0.1-10.57-1.99-15.88c-3.24-9.1-5.49-18.56-8.15-27.87c-0.18-0.64-0.27-1.31-0.53-1.92
		c-6.22-14.46-9.71-29.68-12.9-45.01c-1.12-5.39-3.75-10.49-4.75-15.89c-1.67-9.04-2.79-18.19-3.79-27.33
		c-1.28-11.8-3.45-23.7-2.96-35.46c0.52-12.37,3.27-24.72,6.05-36.86c0.71-3.11,4.74-6.61,8.01-7.75
		c6.38-2.22,13.11-2.12,19.81,0.58c5.57,2.24,11.63,3.27,19.02,5.25c-2.1,2.51-3.42,5.57-5.43,6.13c-2.68,0.74-5.97-0.19-8.85-0.96
		c-1.45-0.39-2.42-2.35-3.87-3.01c-3.85-1.74-7.69-3.47-11.94-0.37c-1.9,1.39-4.73,1.46-6.83,2.67c-1.38,0.8-2.21,2.56-3.64,4.32
		c1.62,0.55,2.5,1.11,3.37,1.11c4.46-0.03,8.21,0.25,8.25,6.41c0.02,2.1,2.33,4.19,3.88,6.75c-1.39,0.33-2.62,1.05-3.4,0.73
		c-5.15-2.15-8.95,1.08-12.8,3.3c-1.48,0.85-2.15,3.27-2.92,5.09c-0.36,0.85,0.23,2.1-0.12,2.95c-3.02,7.39,2.31,9.97,7.25,12.78
		c1.99,1.13,4.24,1.91,6.04,3.28c4.06,3.09,7.87,3.88,12.01,0.15c0.79-0.71,3.09-1.14,3.42-0.71c0.89,1.16,1.75,2.98,1.47,4.3
		c-1.73,8.33-0.41,16.39,1.93,24.32c1.33,4.52,3.18,8.9,5.17,13.18c0.33,0.71,2.94,1.14,3.86,0.61c1.81-1.06,3.03-3.1,4.77-4.33
		c1.42-1,3.28-2.01,4.9-1.94c2.64,0.11,4.36-0.23,4.21-3.24c-0.2-3.99-0.23-7.64,4.94-8.75c0.91-0.2,1.46-2.35,2.06-3.66
		c0.71-1.56,1.3-3.18,1.93-4.77C400.65,431.16,401.17,431.15,401.68,431.13z M511.31,403.77c-0.8,0.84-2.66,2.11-3.57,3.86
		c-2.64,5.08-5.02,10.3-7.25,15.57c-0.81,1.91-0.95,4.12-1.25,6.22c-0.28,1.96-0.05,4.03-0.56,5.9c-3.69,13.35-9.54,26-11.85,39.85
		c-2.54,15.26-12.9,26.87-21.07,39.26c-3.29,5-7.07,8.52-2.84,14.85c-5.99,1.18-7.07,4.33-4.76,8.96c1.12,2.25,3.46,4.8,3.05,6.73
		c-0.92,4.24-3.25,8.18-4.99,12.25c-0.67,1.57-1.29,3.16-1.93,4.74c1.63,0.45,3.23,1.04,4.89,1.29c1.17,0.17,2.41-0.14,2.91-0.17
		c0.85,2.68,1.13,6.1,2.18,6.36c2.58,0.63,5.6,0.13,8.28-0.56c1.89-0.49,3.51-2.04,5.99-3.57c0.46,3.42,0.8,5.9,1.25,9.27
		c2.43-1.6,4.26-2.82,6.3-4.16c3.79,2.43,7.39,5.63,11.6,7.19c4.18,1.55,8.97,1.45,13.49,2.07c0.04,0.8,0.08,1.6,0.11,2.4
		c-2.85,0.51-5.7,1.45-8.54,1.45c-6.14-0.01-12.27-0.48-18.4-0.82c-1.64-0.09-3.27-0.4-4.9-0.54c-13.68-1.11-26.88-4.51-40.51,3.78
		c-10.1,6.14-12.1,18.03-9.9,27.44c0.3,1.27,2.19,2.17,3.35,3.25c0.69-1.52,1.58-2.99,2.02-4.58c0.36-1.32,0.19-2.78,0.26-4.18
		c0.53-0.07,1.06-0.13,1.59-0.2c0.55,1.57,1.04,3.16,1.68,4.7c0.68,1.62,1.33,4.42,2.31,4.56c4.16,0.6,8.59,1.05,12.58,0.11
		c1.13-0.27,1.73-5.49,1.47-8.35c-0.6-6.68,6.72-15.88,13.34-15.88c1.12,0,2.59,0.75,3.21,1.64c0.39,0.56-0.22,2.23-0.86,3.01
		c-0.8,0.97-2.02,1.66-3.17,2.27c-4.46,2.4-6.74,8.26-5.08,12.88c1.3,3.61,4,5.41,7.29,3.7c4.45-2.31,8.32-5.69,12.57-8.41
		c2.97-1.9,6.05-4.67,9.27-4.96c8.16-0.74,16.85-1.72,22.65,6.49c0.35,0.5,1.08,0.76,1.67,1.07c11.44,6.16,23.73,8.57,36.63,8.2
		c10.49-0.31,20.97-0.58,31.45-1.05c1.49-0.07,3.08-0.9,4.36-1.77c4.58-3.1,4.19-8.2,5.13-12.88c1.88-9.3,2.4-17.94-3.9-26.33
		c-3.58-4.77-8.05-9.95-6.67-17.02c0.6-3.08,1.75-6.24,1.48-9.26c-0.58-6.43,3.51-9.08,7.78-12.46c3.44-2.72,6.36-6.61,8.32-10.57
		c2.01-4.05-1.08-12.51-4.64-12.83c-2.7-0.24-5.7,2.71-8.54,4.3c-0.56,0.31-0.89,1.01-1.43,1.39c-4.48,3.17-8.92,6.41-13.51,9.42
		c-2.01,1.31-4.34,2.13-7.13,3.46c1.36,1.88,2.21,3.46,3.43,4.67c6.84,6.84,11.21,14.45,9.26,24.7c-0.46,2.41,0.2,5.34,1.2,7.67
		c2.33,5.42,5.2,10.6,7.82,15.89c2.41,4.86-1.15,8.39-3.55,11.43c-1.09,1.38-5.62,1.11-8.03,0.17c-9.93-3.88-12.09-2.6-18.18,4.1
		c-5.94,6.54-10.48,5.44-14.34-2.59c-3.73-7.76-4.02-17.71-13.21-22.2c-3.22-1.57-6.73-2.62-9.83-4.38
		c-2.09-1.19-3.7-3.21-5.52-4.86c2.17-1.92,4.24-3.98,6.57-5.68c0.8-0.58,2.26-0.19,3.41-0.35c2.36-0.33,3.69-1.27,3.73-4.12
		c0.12-7.78-2.63-10.01-10.42-9.15c-5.41,0.6-10.95,0.12-16.43,0.12c-0.25-0.85-0.51-1.7-0.76-2.54c2.06-1.44,3.97-3.21,6.21-4.24
		c4.94-2.26,11.37-0.93,15.07-6.34c0.33-0.49,1.52-0.61,2.3-0.56c10.55,0.64,17.25,9.32,15.06,19.83c-0.74,3.54,0.58,5.02,3.34,7.11
		c4.32,3.27,8.06,7.44,11.49,11.68c2.02,2.49,2.81,5.94,4.49,8.75c0.66,1.1,2.18,1.98,3.45,2.24c0.48,0.1,1.94-1.8,2-2.84
		c0.48-8.61,0.93-17.52-3.97-24.98c-2.44-3.71-6.87-6.29-10.75-8.84c-6.62-4.34-6.7-5.74-0.41-10.58c1.29-0.99,2.06-3.31,2.08-5.02
		c0.01-0.88-2.03-2.06-3.35-2.63c-1.8-0.79-3.97-0.82-5.63-1.78c-0.98-0.57-1.65-2.27-1.75-3.53c-0.07-0.78,1.07-2.24,1.87-2.4
		c2.9-0.59,6.26-1.8,8.75-0.88c5.97,2.19,8.99-1.27,12.36-4.8c0.96-1.01,2.25-2.63,3.23-2.52c5.99,0.67,8.15-4.38,11.62-7.4
		c0.6-0.53,0.97-1.82,0.81-2.64c-0.89-4.47-6.82-8.14-11.35-7.6c-6.25,0.75-12.53,1.22-18.81,1.64c-1.36,0.09-3.88-0.4-3.95-0.89
		c-0.24-1.66-0.17-3.93,0.83-5.05c1.28-1.45,3.47-2.36,5.43-2.87c3.66-0.94,7.41-1.81,11.16-2.02c12.71-0.73,25.73-1.84,31.98,13.22
		c0.07,0.16,0.57,0.13,1.65,0.35c0.1-2.32,0.71-4.65,0.18-6.7c-0.81-3.16-2.4-6.11-3.67-9.15c-2.41-5.82-13.06-12.28-19.35-12.06
		c-1.8,0.06-4.94-0.5-5.19-1.4c-0.59-2.16-0.07-4.75,0.48-7.05c0.37-1.58,1.55-2.96,2.66-4.95c-4.5-0.38-8.13-0.69-11.73-1
		c-0.3-5.85,10.42-7.21,3.59-13.99c2.07-0.79,3.56-1.53,5.14-1.93c1.72-0.44,3.51-0.56,5.65-0.88c-0.67-2.27-1.26-4.29-1.86-6.31
		c2.26-0.64,4.51-1.28,6.98-1.98c-0.2-0.57-0.29-1.48-0.77-2.08c-4.06-5.01-9.44-9.53-5.79-17.15c0.19-0.4-0.01-0.99-0.01-1.49
		c0-5.66,0-11.33,0-16.88c8.73-1.31,9.2-2.22,8.84-10.78c-0.1-2.45,1.7-4.94,2.32-7.48c0.45-1.84,1.04-4.04,0.44-5.67
		c-3.72-10.14-8.04-20.07-11.63-30.25c-3.76-10.68-9.57-19.86-18.18-27.13c-1.87-1.58-4.72-2.01-8.05-3.34
		c2.64,6.23,3.81,11.69,6.9,15.65c4.12,5.29,6.61,10.41,5.41,17.12c-0.69,3.87,1.21,6.03,4.8,7.55c4.25,1.8,4.88,4.56,2.9,8.83
		c-0.67,1.46-1.79,3.35-1.35,4.57c1.92,5.36,0.34,8.43-4.97,10.38c-1.47,0.54-3.38,3.16-3.11,4.4c0.39,1.81,2.47,3.34,4,4.8
		c1.25,1.19,2.77,2.1,4.66,3.5c-1.52,0.78-1.97,1.22-2.36,1.18c-5.44-0.65-8.33,1.8-9.38,7.1c-0.5,2.52-1.74,4.34-5.15,4.16
		c-4.01-0.21-5.54,2.3-3.32,5.69c1.96,2.99,1.58,5.57,0.91,8.59c-1.08,4.83-1.82,9.27,3.21,13.11c2.89,2.2,4.31,6.34,6.29,9.47
		c-5.74,6.06-7.5,6.63-15.18,6.94c-2.62,0.11-5.53,0.92-7.69,2.33c-2.48,1.62-4.03,2.1-6.5-0.01c-1.21-1.03-3.9-1.46-5.4-0.85
		c-8.25,3.34-16.22,7.16-20.72,15.65c-0.63,1.19-2.78,1.59-4.23,2.35c0.13-1.58-0.29-3.56,0.5-4.66c1.99-2.77,5.26-4.78,6.71-7.74
		c2.85-5.85,7.48-9.56,12.67-12.9c6.6-4.24,6.6-4.24,3.45-11.06c-0.34-0.74-0.55-1.54-0.77-2.32
		C515.31,417.87,513.4,411.12,511.31,403.77z M384.1,476.01c-2.66-3.25-4.44-7.34-7.46-8.76c-10.35-4.86-14.03-15.7-21.8-22.82
		c-4.27-3.92-7.36-9.11-11.12-13.62c-0.64-0.77-2.05-1.42-2.97-1.28c-0.63,0.1-1.04,1.67-1.54,2.58
		c-3.77,6.81-0.46,13.45,0.59,20.11c0.47,3,0.67,7.52,2.53,8.54c4.6,2.5,10.29,5.07,15.15,4.47c5.83-0.72,8.1,1.33,10.53,5.54
		c0.95,1.64,2.88,3.27,4.67,3.76C375.94,475.43,379.44,475.47,384.1,476.01z"/>
	<path d="M333.1,201.87c3.42,12.45,6.86,24.9,10.25,37.36c0.51,1.89,1.27,3.89,1.1,5.77c-0.74,8.61,5.33,14.57,8.4,21.65
		c0.87,2.01,4,3.23,6.3,4.4c4.76,2.41,9.71,4.43,14.47,6.84c1.05,0.53,2.51,2.61,2.27,2.97c-2.43,3.6,2.32,9.75-3.72,11.58
		c-1.9,0.57-4.73-1.11-6.86-2.27c-9.92-5.4-19.75-10.99-29.62-16.48c-1.41-0.79-2.87-1.56-4.39-2.08c-4.72-1.62-7.44-0.08-7.86,4.91
		c-0.59,7.1,3.82,20.07,12.45,24.28c4.63,2.26,8.45,6.14,12.89,8.87c2.84,1.75,6.05,3.26,9.28,3.9c3.34,0.66,6.97,0.54,10.36,0.05
		c4.4-0.64,8.8-0.91,12.05-5.34c4.11-5.62,7.22-5.36,12.35-0.28c1.04-0.84,2.09-1.75,3.2-2.56c5.95-4.31,12.5-4.62,18.38-0.83
		c0.66,0.42,1.54,1.09,1.62,1.73c0.65,5.32,3.61,4.97,8.07,4.62c7.49-0.59,14.13-3.24,20.04-7.12c5.63-3.71,11.51-5.77,17.94-5.89
		c5.32-0.1,6.07-2.81,4.79-6.66c-1.04-3.14,0.66-3.58,2.72-4.58c2.71-1.33,5.88-2.53,7.7-4.73c3.75-4.53,6.72-9.7,10.04-14.6
		c0.74-1.09,1.37-2.42,2.41-3.1c1.12-0.75,2.77-1.37,3.97-1.1c0.74,0.17,1.7,2.25,1.49,3.25c-1.26,6.04-2.78,12.03-4.32,18.01
		c-0.79,3.08-2.25,6.05-2.61,9.16c-0.35,2.99-1.13,4.24-4.24,5.42c-4.3,1.63-7.94,4.95-11.95,7.4c-2.01,1.23-4.25,3.06-6.33,3
		c-5.76-0.18-10.47,1.44-15.15,4.81c-3.15,2.27-7.33,3.16-11.11,4.49c-2.62,0.92-5.33,1.59-8.03,2.25
		c-5.12,1.25-10.11,1.66-14.65-1.93c-2.29-1.8-4.65-1.59-7.68-1.07c-6.6,1.13-13.44,0.85-20.17,1.32c-2.67,0.18-5.66,0.16-7.9,1.35
		c-4.74,2.52-9.07,4.29-14.87,3.31c-8.73-1.47-17.83-0.84-26.5-2.52c-4.79-0.93-10.54-3.67-13.19-7.46
		c-6.16-8.84-9.61-18.93-7.62-30.33c0.89-5.1-0.61-10.64,0.34-15.72c2.38-12.69,5.82-25.17,8.28-37.84
		c1.22-6.28,1.01-12.82,1.83-19.19c0.42-3.3,1.67-6.49,2.55-9.73C332.27,201.39,332.68,201.63,333.1,201.87z"/>
	<path d="M748.18,468.44c-1-2.62-2-5.25-3.23-8.49c-3.58,3.77-6.66,6.87-9.57,10.13c-2.04,2.28-4.08,2.77-7.04,1.62
		c-10.07-3.91-10.08-3.81-10.14-14.91c-0.02-4.31-0.3-8.62-0.27-12.92c0.02-2.78,0.41-4.78,4.39-3.41c3.45,1.18,7.48,0.57,9.76,4.53
		c0.39,0.68,2.39,0.53,3.66,0.57c1.96,0.05,3.96,0.11,5.89-0.17c1.38-0.2,3.63-0.68,3.86-1.49c1.44-5.11,2.43-10.34,3.26-14.13
		c-2.49-2.91-4.27-5.32-6.42-7.35c-1.28-1.21-3.05-2.12-4.76-2.59c-1.72-0.47-3.73,0.12-5.43-0.38c-2.72-0.79-4.79-2.57-1.8-5.21
		c4.94-4.36,10.18-8.38,15.29-12.55c1.52-1.23,3.29-2.26,4.51-3.74c3.7-4.51,8.71-4.47,10.77,0.98c3.78,10.03,5.32,20.31,0.1,30.6
		c-3.69,7.29-7.18,14.71-10.24,22.27c-0.91,2.23,0.06,5.18-0.08,7.78c-0.16,2.96-0.6,5.9-0.92,8.86
		C749.25,468.43,748.71,468.43,748.18,468.44z"/>
	<path d="M446.25,112.65c0-1.87,0-3.51,0-5.32c0.74-0.23,1.39-0.67,1.93-0.56c10.99,2.31,18.54-4.32,25.1-11.04
		c5.69-5.82,12.54-9.21,19.48-12.26c2.92-1.29,6.97-1,10.26-2.78c0.51-0.28,2.65,1.13,2.6,1.32c-0.5,1.63-1.08,4.32-2.09,4.53
		c-4.39,0.92-6.5,3.85-9.14,7.06c-1.5,1.83-5.75,1.99-8.73,1.89c-3.47-0.11-5.41,0.74-7.85,3.55c-4.16,4.78-9.5,8.55-14.47,12.58
		c-1.86,1.51-4.11,2.55-6.86,4.21c3.63,4.19,6.65,8.22,10.23,11.65c3.42,3.28,3.08,5.09-2.3,6.82c-4.71-6.04-9.62-12.32-14.52-18.6
		c-0.48,0.33-0.96,0.65-1.44,0.98c3.2,5.51,6.35,11.04,9.64,16.48c0.44,0.73,1.62,1.42,2.46,1.43c6.18,0.04,6.67,4.08,6.71,8.84
		c0.02,3.23,0.64,6.45,0.99,9.63c-6.11,1.39-7.4,0.28-7.29-5.17c0.04-1.9-0.9-3.81-1.39-5.71c-0.79,0.11-1.59,0.22-2.38,0.33
		c0,2.1,0.32,4.27-0.1,6.29c-0.35,1.72-1.55,3.27-2.38,4.89c-1.28-1-2.7-1.88-3.83-3.03c-6.02-6.15-3.6-13.89-3.52-21.03
		c0.05-4.81-2-6.78-6.21-6.89c-3.17-0.08-4.2-1.93-5.85-4.2c-2.81-3.87-6.29-9.33-10.1-9.88c-5.26-0.76-11.82-2.27-16.98,2.23
		c-2.1,1.83-4.53,3.29-7.86,5.66c-0.87-3.07-2.4-5.62-1.9-7.69c0.33-1.39,3.46-2.24,5.45-3.06c1.64-0.68,3.49-0.81,5.15-1.44
		c5.47-2.08,10.78-2.54,16.37-0.05c3.56,1.58,7.59,2.06,11.24,3.48C439.89,109.07,442.89,110.93,446.25,112.65z"/>
	<path d="M463.78,262.72c-2.32-0.82-3.96-1.78-5.67-1.93c-3.14-0.28-6.32-0.05-9.48-0.1c-0.99-0.01-2.61,0.12-2.86-0.37
		c-4.2-8.08-12.17-3.66-18.21-5.5c-3.22-0.98-6.81-0.75-10.24-1.07c-0.12-0.65-0.25-1.3-0.37-1.95c1.54-1.31,2.9-2.95,4.64-3.87
		c5.75-3.04,14.82-1.33,19.7,3.19c1.07,0.99,2.86,1.63,4.34,1.7c9.27,0.41,18.73,1.81,27.77,0.48c6.44-0.95,12.32-5.69,18.48-8.67
		c1.71-0.83,3.54-1.42,5.31-2.12c0.38,0.55,0.75,1.09,1.13,1.64c-1.39,1.64-2.75,3.32-4.19,4.92c-4.64,5.16-8.83,10.88-14.12,15.27
		c-4.91,4.07-7.79,10.1-15.17,12.12c-7.81,2.13-14.7,7.49-22.16,11.09c-2.01,0.97-5.33,1.7-6.83,0.7c-2.27-1.5,0.07-6.54,2.55-8.69
		c2.29-2,4.47-4.8,5.3-7.65c1.41-4.9,3.21-7.09,8.17-7.2c3.32-0.07,6.64-0.1,9.95-0.2C462.07,264.51,462.31,264.1,463.78,262.72z"/>
	<path d="M372.26,121.86c1.12-3.52,1.23-5.53,2.26-6.75c1.68-1.99,4.13-3.31,5.94-5.21c1-1.05,1.36-2.7,2.01-4.08
		c-1.16-0.38-2.33-1.12-3.47-1.07c-3.48,0.17-5.36-1.36-7.66-4.09c-3.87-4.59-8.75-8.44-13.6-12.07c-4.43-3.32-8.95-1.86-13.25,1.06
		c-1.23,0.84-3.04,0.83-4.59,1.22c0.18-1.93-0.39-4.78,0.66-5.65c8.02-6.6,11.93-9.5,20.26-2.48c8.44,7.12,16.88,14.25,25.06,21.67
		c4.78,4.34,4.89,10.72,5.16,16.54c0.2,4.17,1.73,4.48,5.32,4.98c5.92,0.82,9.95-2.81,14.83-4.46c2.12-0.72,5.24-0.86,6.92,0.23
		c1.43,0.93,2.1,4.07,1.97,6.16c-0.33,5.22-4.99,7.07-9.17,3.93c-6.45-4.84-6.98-4.66-13.12-0.17c-2.44,1.78-5.6,2.58-8.43,3.83
		c-0.38-0.44-0.76-0.88-1.15-1.32c0.3-1.86,0.59-3.72,0.89-5.59C384.5,124.96,382.48,116.51,372.26,121.86z"/>
	<path d="M357.42,102.3c2.52-0.26,5.04-0.51,7.56-0.77c-1.04,2.21-2.07,4.41-3.5,7.46c6.95,5.42,7.63,15.78,12.96,24.36
		c-5.64,1.28-8.9,4.1-8.34,10.1c0.09,0.97-2.33,3.19-2.74,3c-1.8-0.83-4.11-2.03-4.71-3.66c-1.06-2.86-0.66-6.24-1.52-9.22
		c-1.04-3.65-2.03-7.68-4.31-10.54c-5.17-6.5-8.63-13.34-7.41-21.78c0.27-1.87,1.93-3.55,2.95-5.31c1.35,1.06,2.79,2.04,4.04,3.22
		c1.55,1.48,2.94,3.12,4.39,4.7C357,103.34,357.21,102.82,357.42,102.3z"/>
	<path d="M499.6,133.91c-0.13-2.35-0.38-4.7-0.35-7.05c0.04-2.89-0.95-4.48-3.99-5.25c-5.34-1.35-6.35-6.9-3.12-11.19
		c4.92-6.55,11.89-5.28,19.48-5.81c-3.85-2.54-6.95-4.58-11.01-7.25c5.29-3.24,9.27-6.2,13.68-8.22c3.66-1.68,4.3-3.94,3.87-7.49
		c-0.15-1.21,1.1-2.6,1.72-3.9c1.46,1,4.15,2.01,4.14,2.99c-0.04,3.54-0.84,7.1-1.64,10.59c-0.54,2.36-1.36,4.71-2.4,6.9
		c-3.19,6.74-6.47,13.44-9.87,20.08c-2.16,4.23-4.59,8.32-6.93,12.46c-0.67,1.18-1.48,2.29-2.22,3.43
		C500.51,134.1,500.06,134.01,499.6,133.91z"/>
	<path d="M400.22,212.67c-2.5,8.98-3.9,9.54-12.17,10.16c-11.87,0.89-20.25-4.57-26.82-13.51c-3.66-4.97-3.11-10.9-1.88-16.61
		c0.21-1,1.67-2.28,2.72-2.46c8.04-1.32,11.81-7.76,16.51-13.21c2.08-2.41,4.61-4.54,7.26-6.33c1.02-0.69,2.91-0.09,4.4-0.07
		c-0.03,1.85,0.7,4.33-0.22,5.44c-3.67,4.42-7.8,8.46-11.86,12.55c-2.31,2.32-5.06,4.25-7.15,6.73c-4.61,5.47-4.75,9.51-1.03,14.68
		c2.75,3.83,11.01,6.14,15.62,5.01C390.26,213.9,395.1,213.47,400.22,212.67z"/>
	<path d="M471.05,204.63c1.45-5.66,2.65-10.32,4.17-16.22c1.57,1.23,4.04,2.3,4.93,4.14c0.8,1.64,0.66,5.23-0.46,6.04
		c-4.94,3.58-6.34,9.11-8.73,14.07c-0.44,0.91-0.09,2.54,0.47,3.5c1.06,1.84,2.84,3.29,3.75,5.18c0.73,1.51,0.61,3.43,0.87,5.17
		c-1.61-0.13-3.61,0.32-4.75-0.48c-4.47-3.11-7.73-3.63-13.03-0.03c-7.67,5.2-16.65,8.84-26.55,7.66c-1.66-0.2-3.29-0.64-4.94-0.97
		c-0.07-0.58-0.14-1.16-0.21-1.73c4.92-1.4,9.89-2.65,14.76-4.23c6.67-2.17,13.47-4.15,19.78-7.13c2.35-1.11,4.85-4.79,4.85-7.3
		c0-3.83-2.32-7.3-6.67-8.89c-6.1-2.23-7.83-5.98-5.06-10.49c0.84-1.36,2.69-2.09,4.07-3.11c0.97,1.33,2.38,2.53,2.84,4.01
		C462.71,198.88,466.91,201.1,471.05,204.63z"/>
	<path d="M406.56,522.53c6.74,7.3,14.83,3.15,22.27,2.96c5.92-0.15,9.15,3.41,12.54,6.71c1.26,1.23,1.27,4.82,0.47,6.76
		c-0.68,1.67-3.26,3.41-5.13,3.56c-4.2,0.34-7.97-0.12-9.91,5.18c-1.16,3.15-5.34,2.4-7.67-0.17c-2.08-2.28-4.67-4.66-7.49-5.56
		c-3.51-1.13-4.48-2.31-2.65-5.5c1.85-3.23,1.7-5.67-2.05-7.7c-1.21-0.66-1.38-3.24-2.03-4.95
		C405.46,523.39,406.01,522.96,406.56,522.53z"/>
	<path d="M441.39,190.1c-1.72-2.49-3.54-4.9-5.12-7.47c-2.08-3.38-4.21-4.83-8.53-2.97c-3.1,1.33-7,0.7-10.49,1.24
		c-2.01,0.31-3.89,1.42-5.89,1.77c-1.75,0.3-3.6,0.04-5.4,0.03c0.68-1.35,1.3-2.73,2.06-4.04c1.03-1.77,2.2-3.46,3.27-5.21
		c0.78-1.27,1.49-2.58,2.8-4.87c0.99,2.56,1.36,3.95,2.04,5.18c2.16,3.92,5.58,4.36,9.43,3.09c3.79-1.25,4.86-4.32,4.54-7.88
		c-0.1-1.1-1.25-2.1-1.92-3.15c-0.92,0.74-1.92,1.41-2.75,2.24c-1.61,1.58-3.05,4.52-4.71,4.63c-3.44,0.23-4.08-2.72-4.19-5.9
		c-0.12-3.51-2.88-2.1-4.9-2.03c-1.5,0.05-3.01-0.25-4.52-0.39c0.73-1.51,1.09-3.8,2.27-4.37c2.54-1.22,5.49-2.1,8.3-2.16
		c13.43-0.31,13.92-2.06,21.08,14.05c1.84,4.15,3.37,8.46,4.75,12.79c0.48,1.49,0.08,3.25,0.08,4.89
		C442.84,189.72,442.12,189.91,441.39,190.1z"/>
	<path d="M396.95,371.18c5.48-2.16,11.03-4.13,16.4-6.54c3.15-1.41,6.49-3,8.88-5.38c5.47-5.46,10.51-10.72,19.41-9.66
		c9.78,1.17,19.68,1.4,29.51,2.18c1.3,0.1,2.54,1.03,4.18,1.75c-5,6.21-11.15,4.73-17.21,4.95c-10.99,0.39-22.58-3.04-32.56,5.18
		c-4.19,3.46-9.19,6.25-14.26,8.23c-4.19,1.63-9.01,1.62-13.56,2.33C397.48,373.2,397.21,372.19,396.95,371.18z"/>
	<path d="M382.57,352.34c-11.54-6.02-23.32-9.21-36.18-8.81c-5.12,0.16-10.36-1.29-15.44-2.46c-7.01-1.61-5.42-8.6-7.65-13.19
		c-0.47-0.97-0.53-2.31-0.34-3.4c0.17-0.96,0.96-1.81,1.48-2.71c0.92,0.7,2.22,1.22,2.67,2.14c0.7,1.44,0.44,3.39,1.26,4.71
		c1.01,1.61,2.48,3.36,4.16,4.06c5.8,2.43,11.61,3.68,18.28,3.38c8.72-0.4,17.6,1.4,26.32,2.81
		C382.87,339.8,385.56,346.81,382.57,352.34z"/>
	<path d="M353.34,238.59c1.05,0.62,1.75,0.81,2.08,1.27c8.52,11.73,20.89,15.12,34.44,15.83c4.31,0.22,8.66-0.21,12.96,0.13
		c2.15,0.17,4.21,1.42,7.75,2.7c-2.44,1.96-3.66,3.68-5.23,4.08c-9.71,2.52-19.4,3.9-28.9-1.23c-4.65-2.51-9.57-4.52-14.42-6.64
		C354.34,251.37,352.52,248.24,353.34,238.59z"/>
	<path d="M479.25,158.39c3.2,0.56,6,0.55,8.47-2.41c2.16-2.58,7.16-0.79,9.03,3.43c1.09,2.47,1.4,5.45,1.41,8.21
		c0.02,3.63-2.24,7.26,0.8,10.88c0.56,0.67-0.89,3.18-1.69,4.7c-0.19,0.35-2.16,0.28-2.2,0.11c-0.39-1.54-0.77-3.15-0.71-4.72
		c0.06-1.5,0.66-2.97,1.05-4.54c-6.71,3.59-12.92,6.92-19.72,10.56c-0.59-4.21-1.08-7.69-1.71-12.19c3.66,0.59,6.74,1.09,9.82,1.59
		c-5.62-4.15-4.52-10.05-4.54-15.63L479.25,158.39z M488.63,162.68c-0.14,2.99-0.35,5.98-0.29,8.97c0.01,0.27,2.12,1.02,2.59,0.66
		C492.79,170.91,492.18,164.74,488.63,162.68z"/>
	<path d="M418.82,195.99c-0.25,4.01-2.44,6.86-6.94,7.67c-6.58,1.18-13.47,0.79-19.55,4.57c-1.23,0.77-4.51,0.27-5.34-0.81
		c-1.26-1.64-1.62-4.32-1.47-6.5c0.04-0.67,3.5-2.12,4.46-1.57c4.51,2.56,8.32-0.36,11.5-1.96c4.43-2.22-0.19-5.16-1.79-9.5
		C406.72,190.87,412.56,193.34,418.82,195.99z"/>
	<path d="M462.38,245.87c2.07-1.33,3.28-2.62,4.7-2.93c7.42-1.59,11.89-6.52,15.6-12.7c0.82-1.37,3.11-2.69,4.68-2.64
		c4.89,0.17,8.56-1.61,11.77-5.15c1.49-1.64,3.51-2.8,5.3-4.18c0.62,0.53,1.23,1.06,1.85,1.59c-1.45,2.26-2.51,4.95-4.44,6.68
		c-2.68,2.39-5.79,4.57-9.09,5.94c-6.79,2.82-11.56,8-16.77,12.78C472.31,248.59,468.05,249.84,462.38,245.87z"/>
	<path d="M463.85,114.68c4.55,1.71,8.97,2.5,12.31,4.85c3.84,2.7,6.87,6.65,9.91,10.34c0.77,0.94,0.23,2.95,0.29,4.47
		c-1.33-0.38-2.85-0.46-3.94-1.19c-6.25-4.21-12.44-8.52-18.55-12.94c-1.07-0.77-2.11-2.17-2.27-3.39
		C461.51,116.13,463.26,115.2,463.85,114.68z"/>
	<path d="M342.2,131.22c1.68,3.35,3.94,6.55,4.89,10.09c1.26,4.73,3.09,7.92,8.39,8.84c1.95,0.34,6.09-0.14,5.31,4.12
		c-0.49,2.69-6.59,4.96-9.24,3.33c-1.69-1.04-3.16-2.81-4.13-4.58c-2.4-4.39-4.64-8.9-6.59-13.52c-0.96-2.27-1.14-4.88-1.67-7.33
		C340.18,131.85,341.19,131.53,342.2,131.22z"/>
	<path d="M419.71,112.88c5.87,0.2,9.44,1.3,11.61,6.03c1.59,3.47,4.57,6.28,6.55,9.6c0.84,1.41,0.7,3.4,1,5.13
		c-1.67,0.06-3.35,0.26-5,0.1c-0.7-0.07-1.55-0.76-1.96-1.4C427.98,126.17,424.12,119.94,419.71,112.88z"/>
	<path d="M503.26,202.32c-1.67,0.5-3.15,1.3-4.65,1.32c-3.82,0.05-7.16,0.23-10.47,3.11c-3.06,2.65-4.5,0.07-4.46-4.02
		c8.82,2.45,8.53-6.09,12.44-9.8c1.69-1.6,3.63-3.04,5.71-4.06c0.65-0.32,2.64,0.78,3.01,1.65c0.33,0.78-0.41,2.52-1.22,3.2
		C499.39,197.28,499.33,197.21,503.26,202.32z"/>
	<path d="M428.94,139.39c3.88-1.33,5.69-0.64,6.37,3.22c0.62,3.51,2.22,6.83,3.15,10.3c0.54,2,0.61,4.12,0.92,6.41
		c-5.86-1.57-7.94-4.62-8.29-10.04C430.88,145.97,429.7,142.74,428.94,139.39z"/>
	<path d="M513.41,188.6c-0.66-1.19-1.46-2.33-1.95-3.59c-1.94-4.98-3.85-9.96-5.61-15c-0.48-1.38-0.36-2.98-0.52-4.47
		c1.68,0.64,4.23,0.8,4.91,2.01C513.79,173.88,516.29,180.58,513.41,188.6z"/>
	<path d="M479.27,158.39c-1.57-3.98-3.38-7.88-4.63-11.96c-0.73-2.37-0.61-5.02-0.68-7.54c0-0.18,2.17-0.82,2.39-0.53
		c1.41,1.84,2.65,3.83,3.76,5.88c0.52,0.97,0.34,2.39,0.99,3.2c3.52,4.42,1.72,7.81-1.84,10.96
		C479.25,158.39,479.27,158.39,479.27,158.39z"/>
	<path d="M480.63,223.31c1.79-7.18,7.2-9.76,13.18-6C489.26,219.38,485.4,221.14,480.63,223.31z"/>
	<path d="M508.31,159c-2.55-0.5-5.48-0.43-7.5-1.74c-1.07-0.7-0.56-3.82-0.76-5.85c0.5-0.2,0.99-0.4,1.49-0.6
		c2.58,1.98,5.17,3.97,7.75,5.95C508.96,157.5,508.63,158.25,508.31,159z"/>
	<path d="M418.89,154.24c-1.74-2.37-3.2-3.74-3.71-5.4c-0.18-0.58,2.47-2.91,3.01-2.67c1.89,0.87,3.41,2.52,5.08,3.87
		C422.11,151.15,420.96,152.25,418.89,154.24z"/>
	<path d="M494.54,216.33c0.69-3.47-1.18-7.16,3.18-8.5c0.88-0.27,3.19,0.99,3.22,1.64C501.15,213.14,499.53,215.69,494.54,216.33z"
		/>
	<path d="M433.91,223.93c-1.36-1.75-2.75-3.26-2.61-3.41c1.44-1.61,3.04-3.11,4.82-4.31c0.25-0.17,2.56,2.09,2.48,2.2
		C437.39,220.11,435.94,221.64,433.91,223.93z"/>
	<path d="M436.65,207.04c2.26,0,4.51,0,6.77,0c0.02,0.64,0.04,1.29,0.07,1.93c-2.27,0.26-4.55,0.52-6.82,0.78
		C436.66,208.85,436.65,207.94,436.65,207.04z"/>
	<path d="M429.6,209.61c-1.38,0-3.26,0.55-4.03-0.13c-1.06-0.94-1.29-2.82-1.87-4.3c0.42-0.31,0.84-0.62,1.26-0.93
		c1.7,1.16,3.4,2.32,5.1,3.48C429.9,208.35,429.75,208.98,429.6,209.61z"/>
	<path d="M429.51,881.71c-15.87,0-30.17,0-44.47,0c-0.12-0.3-0.24-0.61-0.36-0.91c1.16-0.64,2.26-1.55,3.51-1.87
		c7.06-1.86,9-5.52,6.39-12.39c-1.17-3.07-2.03-6.31-3.65-9.12c-0.82-1.43-2.97-2.94-4.54-2.97c-8.81-0.16-17.63,0.23-26.45,0.21
		c-3.26-0.01-5.08,0.76-4.82,4.46c0.08,1.16-0.7,2.48-1.36,3.56c-2.17,3.53-3.66,7.29-1.45,11.14c1.13,1.98,3.25,3.54,5.22,4.85
		c1.36,0.91,3.22,1.07,4.86,1.57c-0.03,0.48-0.06,0.97-0.09,1.45c-2.82,0.31-5.65,0.9-8.47,0.87c-18.78-0.21-37.55-0.58-56.33-0.79
		c-1.87-0.02-3.75,0.67-6.69,1.23c0.74-1.98,0.83-3.45,1.6-4.08c3.75-3.05,2.87-6.57,0.73-9.68c-3.91-5.68-8.23-11.09-12.47-16.53
		c-2.94-3.77-5.91-7.54-9.15-11.05c-0.91-0.99-3.28-1.86-4.16-1.35c-1.08,0.62-1.81,2.74-1.8,4.21c0.05,7.96,0.77,15.93,0.48,23.87
		c-0.21,5.63,1.87,8.77,7.09,10.29c1.44,0.42,2.72,1.37,3.74,3.06c-14.82,0-29.63,0-44.45,0c-0.08-0.52-0.17-1.04-0.25-1.57
		c1.56-0.51,3.09-1.14,4.69-1.51c5.67-1.34,7.37-3.38,7.37-9.33c0.01-22.49-0.09-44.99,0.07-67.48c0.03-4.95-1.4-7.87-6.68-8.51
		c-1.48-0.18-2.79-1.74-4.17-2.67c1.69-0.54,3.37-1.54,5.06-1.54c10.96-0.01,21.93,0.21,32.89,0.35c1.73,0.02,3.47,0,5.2,0
		c0.14,0.5,0.28,1,0.42,1.49c-1.72,0.9-3.36,2.02-5.16,2.65c-4.73,1.67-6.8,4.97-6.58,9.87c0.29,6.6,0.58,13.2,0.86,19.81
		c0.06,1.5,0.08,3,0.08,4.5c0.01,1.82-0.02,3.65-0.04,5.47c2.18-0.86,4.72-1.27,6.46-2.68c4-3.23,7.47-7.11,11.41-10.42
		c4.68-3.92,9.65-7.49,14.45-11.27c1.3-1.02,2.48-2.22,3.61-3.43c5.69-6.09,5.45-7.94-1.46-12.37c-0.37-0.24-0.51-0.83-0.75-1.25
		c2.55-2.18,27.61-3.4,31.23-1.38c-0.53,0.63-0.9,1.53-1.52,1.76c-9.3,3.49-16.92,8.97-23.35,16.74c-3.69,4.46-9.39,7.2-13.99,10.95
		c-6.39,5.21-6.36,6.64-1.24,13.11c7.97,10.07,15.61,20.43,23.86,30.27c4.24,5.05,9.31,9.47,14.35,13.75
		c3.25,2.77,8.65,1.86,11.54-1.86c2.51-3.24,4.66-6.86,6.41-10.57c4.9-10.44,9.62-20.98,14.21-31.56
		c6.04-13.93,11.88-27.95,17.86-41.91c0.41-0.96,1.29-1.73,1.95-2.59c1.09,0.87,2.67,1.51,3.19,2.64c3.27,7.16,6.3,14.43,9.43,21.66
		c5.6,12.94,11.22,25.87,16.84,38.8c2.54,5.86,4.78,11.88,7.74,17.53c1.55,2.96,4.35,5.28,6.62,7.86
		C426.14,878.3,427.34,879.46,429.51,881.71z M387.29,848.89c-2.11-5.05-4.22-10.1-6.32-15.16c-1.63-3.93-3.02-7.97-4.94-11.75
		c-0.7-1.39-2.6-2.17-3.96-3.22c-0.53,1.22-1.11,2.43-1.59,3.66c-0.52,1.31-0.85,2.7-1.44,3.98c-2.83,6.13-5.84,12.18-8.52,18.38
		c-0.82,1.9-0.72,4.11,2.42,4.11C370.86,848.89,378.78,848.89,387.29,848.89z"/>
	<path d="M575.87,662.73c6.58,0,13.31-0.89,19.72,0.19c12.25,2.06,24.3-1.39,36.44-0.22c1.16,0.11,2.48-0.32,3.47,0.1
		c2.36,0.99,5.25,1.78,6.72,3.62c12.39,15.48,24.49,31.18,36.73,46.78c1.06,1.35,2.48,2.41,4.3,4.14c0.54-1.83,1.11-2.86,1.1-3.9
		c-0.07-11.94-0.11-23.88-0.4-35.82c-0.2-8.13-0.36-8.12-8.94-13.07c0.51-0.77,1-2.17,1.5-2.17c8.35,0,16.71,0.17,25.06,0.3
		c0.08,0.68,0.17,1.37,0.25,2.05c-1.23,0.42-2.43,1.04-3.68,1.21c-5.19,0.7-7.27,4.03-7.74,8.81c-0.08,0.83-0.1,1.66-0.12,2.5
		c-0.35,22.95-0.71,45.91-1.03,68.86c-0.02,1.65,0.47,3.34,0.23,4.94c-0.19,1.26-0.93,3.15-1.81,3.39
		c-1.01,0.28-2.89-0.59-3.63-1.55c-9.91-12.77-19.59-25.72-29.54-38.46c-8.01-10.26-16.27-20.33-24.52-30.4
		c-0.8-0.98-2.34-1.36-3.53-2.02c-0.09,1.29-0.27,2.59-0.25,3.88c0.14,6.92,0.49,13.85,0.46,20.77
		c-0.04,10.66-0.19,21.32-0.55,31.97c-0.21,6.16,1.72,10.6,7.94,12.59c1.03,0.33,1.86,1.26,4.1,2.85c-10.45,0-19.43,0-28.42,0
		c-0.17-0.31-0.33-0.61-0.5-0.92c1.06-0.74,2.03-1.72,3.2-2.19c5.93-2.42,7.73-5.3,7.76-11.59c0.08-20.96,0.28-41.91,0.47-62.87
		c0.04-4.63-1.78-7.93-6.17-9.71c-6.24-2.54-12.6-1.53-18.53,0.46c-1.85,0.62-3.52,4.73-3.58,7.28
		c-0.35,14.82-0.33,29.65-0.16,44.48c0.11,9.33-2.19,17.78-6.51,26.1c-3.9,7.52-10.9,9.72-17.65,10.22
		c-10.13,0.75-20.62,2.32-30.44-3.4c-9.2-5.37-13.9-13.32-14.25-23.34c-0.59-16.81-0.16-33.66-0.16-50.49c0-8.28-0.8-9.4-8.78-12.71
		c-0.49-0.2-0.78-0.9-2.19-2.62c15.05,0,28.88,0,42.71,0c0.06,0.31,0.12,0.61,0.19,0.92c-0.96,0.41-1.9,0.85-2.87,1.24
		c-6.17,2.46-8.05,5.25-8.05,11.98c0,18.66-0.28,37.33,0.1,55.99c0.23,11.08,6.52,16.31,17.09,17.94
		c13.93,2.15,24.46-9.2,24.81-22.11c0.51-19.07,0.15-38.17-0.18-57.26c-0.03-1.61-2.27-3.6-3.96-4.67c-1.93-1.22-4.38-1.6-6.61-2.34
		C575.62,663.89,575.75,663.31,575.87,662.73z"/>
	<path d="M799.3,662.9c1.18-0.32,2.37-0.92,3.55-0.91c15.8,0.19,31.61,0.07,47.38,0.86c10.94,0.55,21.12,3.79,27.62,13.79
		c4.31,6.64,4.35,14.85-0.39,21.27c-3.1,4.19-6.09,8.57-11.77,10.06c-3.9,1.02-2.69,3.86-1.1,6.2c6.66,9.85,13.4,19.65,20.09,29.48
		c2.21,3.25,4.34,6.54,6.87,10.34c-8.18,0-15.84,0.24-23.45-0.19c-1.61-0.09-3.44-2.38-4.56-4.07
		c-6.92-10.41-13.51-21.03-20.56-31.35c-2.15-3.14-5.42-5.52-8.18-8.25c-0.7,0.19-1.4,0.38-2.1,0.58
		c-0.35,5.91-0.78,11.82-1.03,17.73c-0.17,4.01,0.25,8.05-0.16,12.02c-0.63,6.02,1.15,8.84,7.11,10.38
		c1.86,0.48,3.63,1.29,5.45,1.95c0.04,0.52,0.08,1.03,0.12,1.55c-1.63,0.38-3.31,1.22-4.88,1.05c-11.85-1.32-23.68-1.43-35.53-0.01
		c-1.45,0.17-3.04-0.75-4.57-1.16c0-0.49,0-0.98,0-1.47c1.44-0.62,2.91-1.81,4.33-1.75c5.65,0.24,6.64-3.48,6.66-7.68
		c0.1-23.66,0.05-47.32,0.04-70.98c0-4.14-3.15-5.4-6.27-6.61c-1.57-0.61-3.17-1.13-4.75-1.68
		C799.22,663.67,799.26,663.29,799.3,662.9z M832.13,706.88c9.83-0.72,20.56,2.69,25.4-8.28c3.61-8.17,3.88-17.74-1.63-25.09
		c-5.67-7.56-15.04-5.85-23.76-5.67C832.13,680.87,832.13,693.56,832.13,706.88z"/>
	<path d="M384.97,709.87c5.06,7.51,9.87,14.75,14.8,21.91c4.94,7.17,10.01,14.26,15.36,21.87c-1.68,0.43-2.89,0.99-4.1,1.01
		c-5.49,0.08-10.98,0.13-16.46-0.06c-3.44-0.12-5.69-1.79-7.78-4.98c-7.91-12.11-16.34-23.88-24.76-35.64
		c-0.98-1.36-3.06-1.93-5.83-3.58c-0.4,5.08-0.86,8.77-0.94,12.45c-0.14,6.33-0.15,12.67,0,19c0.14,6.29,2.25,8.35,8.5,9.17
		c2.02,0.26,3.99,0.94,5.99,1.43c-0.07,0.51-0.15,1.03-0.22,1.54c-15.32,0-30.63,0-45.95,0c-0.13-0.34-0.27-0.67-0.4-1.01
		c1.15-0.7,2.33-2.03,3.45-1.99c7.24,0.29,7.44-5.11,7.49-9.73c0.23-21.99,0.18-43.99,0.05-65.99c-0.03-6.12-2.53-8.59-8.51-9.55
		c-1.15-0.18-2.27-0.53-3.41-0.8c-0.02-0.52-0.04-1.04-0.06-1.56c1.39-0.28,2.78-0.78,4.18-0.81c11.62-0.28,23.28-1.07,34.87-0.52
		c9.49,0.45,19.06,1.87,28.29,4.1c8.29,2,14.86,13.26,14.68,22.57c-0.15,8.02-6.88,16.3-15.44,19.12
		C387.58,708.21,386.51,709.02,384.97,709.87z M355.22,687.58c0,2.83-0.07,5.65,0.01,8.48c0.39,12.8-1.83,10.52,10.89,10.61
		c10.27,0.07,15.57-4.85,16.72-14.91c1.58-13.83-2.46-20.93-13.79-23.63c-2.68-0.64-5.63-0.1-8.4-0.47
		c-4.42-0.6-5.44,1.83-5.43,5.47C355.24,677.94,355.23,682.76,355.22,687.58z"/>
	<path d="M564.68,933.71c27.55-1.95,50.58,22.22,47.6,52.38c-2.3,23.19-20.13,44.55-46.62,44.22
		c-31.56-0.39-47.96-20.95-48.93-48.04C515.83,957.26,535.1,932.4,564.68,933.71z M538.9,981.54c1.55,9.15,2.29,17.55,4.49,25.55
		c2.93,10.65,9.76,17.92,21.58,18.45c8.58,0.38,13.85-5,18.32-11.56c4.67-6.86,5.47-14.89,5.69-22.57
		c0.3-10.84-0.8-21.75-1.86-32.58c-0.98-9.98-10-19.09-19.04-20.1c-11.63-1.31-20.26,3.8-23.68,15.5
		C541.76,963.25,540.63,972.71,538.9,981.54z"/>
	<path d="M457.12,933.71c27.05-2.05,50.96,20.56,49.73,50.51c-0.51,12.5-6.6,24.25-15.37,33.3c-8.65,8.92-20.79,13.33-32.8,12.85
		c-30.83-1.24-47.5-20.94-48.04-49.48C410.16,955.35,428.25,934.1,457.12,933.71z M433.06,981.9c1.16,15.63,2.47,24.19,6.43,31.49
		c9.6,17.72,28.5,14.31,36.32,2.67c4.66-6.93,5.97-14.35,6.8-22.3c1.41-13.48,0.98-26.75-3.4-39.65
		c-3.58-10.54-11.29-15.58-22.8-15.39c-9.41,0.15-16.46,5.77-18.99,16.51C435.36,963.97,434.47,973,433.06,981.9z"/>
	<path d="M761.15,684.28c3.88,5.28,4.15,40.07,0.35,47.35c-1.3-4.58-2.46-7.95-3.19-11.41c-1.48-7.01-4.83-10.21-11.89-10.11
		c-1.41,0.02-3.99,2.1-3.99,3.23c-0.04,10.42,0.42,20.84,0.63,31.26c0.07,3.22,1.54,4.34,4.67,4.22c6.14-0.24,12.44,0.56,18.4-0.53
		c9.19-1.69,14.02-9.14,18.44-16.62c0.88-1.48,1.73-2.98,3.37-5.79c0.89,2.57,1.87,3.91,1.65,5.01c-1.37,6.75-2.94,13.46-4.61,20.15
		c-0.68,2.72-2.53,3.78-5.54,3.74c-13.99-0.17-27.99-0.17-41.98-0.05c-7.39,0.06-14.77,0.6-22.16,0.68
		c-1.77,0.02-3.56-0.88-5.34-1.35c-0.01-0.5-0.02-1.01-0.02-1.51c1.56-0.59,3.14-1.71,4.69-1.68c4,0.08,5.86-1.54,5.91-5.54
		c0.02-1.8,0.66-3.59,0.67-5.38c0.06-20.82,0.07-41.65,0.07-62.47c0-9.41-0.41-9.83-9.79-11.16c-1.13-0.16-2.22-0.62-3.58-2.16
		c1.99-0.45,3.99-1.27,5.98-1.29c17.98-0.14,35.96-0.14,53.94-0.18c3.77-0.01,7.59-0.34,11.29,0.17c1.49,0.21,3.8,2.22,3.87,3.52
		c0.38,6.47,0.17,12.98,0.08,19.47c-0.01,0.5-0.69,0.98-0.97,1.36c-2.91-4.41-5.37-8.96-8.65-12.82c-2.09-2.46-5.2-4.99-8.2-5.53
		c-6.13-1.09-12.51-1.17-18.76-0.9c-1.48,0.07-3.95,3.14-4.04,4.92c-0.42,8.8-0.34,17.62-0.15,26.44c0.14,6.28,2.42,7.34,8.26,5.35
		c6.47-2.21,7.41-7.62,8.67-13.05C759.74,689.49,760.34,687.36,761.15,684.28z"/>
	<path d="M611.02,848.06c0,2.44,0.88,5.37-0.16,7.23c-3.24,5.78-2.56,11.88-2.62,17.98c-0.07,5.95-1.25,7.14-7.2,7.45
		c-10.78,0.57-21.55,1.49-32.33,1.73c-13.61,0.3-27.22,0.07-42.24,0.07c1.01-3.48,1.22-5.91,2.34-7.8
		c10.51-17.65,21.2-35.2,31.77-52.81c4.66-7.77,9.19-15.62,13.75-23.45c0.4-0.68,0.64-1.45,1.37-3.14
		c-9.5-0.57-18.18-1.34-27.13,1.26c-10.09,2.94-10.69,13.03-15.37,20.06c-0.44-0.19-0.87-0.38-1.31-0.57
		c-0.22-1.22-0.74-2.48-0.59-3.66c0.81-6.34,1.51-12.73,2.89-18.95c0.34-1.52,3.06-3.57,4.7-3.59c20.33-0.25,40.65-0.21,60.98-0.12
		c3.69,0.02,4.4,1.98,2.37,5.26c-12.36,19.94-24.7,39.89-37,59.87c-3.1,5.03-6.16,10.1-8.9,15.32c-0.79,1.51-0.4,3.64-0.56,5.48
		c1.5-0.03,3.02,0.04,4.51-0.1c1.95-0.18,3.88-0.73,5.83-0.75c4.8-0.06,9.6,0.26,14.39,0.12c11.83-0.36,20.87-7.35,24.73-18.67
		c1.03-3.04,2.52-5.92,3.79-8.87C609.7,847.63,610.36,847.85,611.02,848.06z"/>
	<path d="M421.4,663.82c2.27-0.61,4.54-1.77,6.81-1.76c20.45,0.1,40.91,0.56,61.36,0.53c4.93-0.01,6.55,2.13,6.62,6.39
		c0.08,4.83,0.13,9.67-0.06,14.49c-0.04,1.03-1.2,2.01-1.85,3.01c-0.68-0.8-1.64-1.5-2.01-2.43c-4.61-11.76-11.17-16.34-23.55-16.35
		c-0.67,0-1.33,0-2,0c-11.5,0-11.5,0-11.5,11.82c0,8.58,0,17.16,0,25.56c8.84,1.12,14.06-2.41,16.01-9.62
		c1.02-3.75,2.28-7.43,3.43-11.14c0.61,0.17,1.23,0.33,1.84,0.5c0,14.54,0,29.08,0,43.99c-5.36-0.43-4.72-4.45-5.11-7.02
		c-1.3-8.42-3.1-10.64-11.55-10.93c-1.49-0.05-4.34,2.67-4.41,4.2c-0.41,9.31-0.31,18.65-0.15,27.97c0.07,3.97,1.85,6.39,6.5,6.1
		c4.44-0.28,9.11,0.94,13.35,0.01c4.49-0.98,9.13-3.04,12.73-5.86c4.6-3.62,9.03-7.93,9.78-14.47c0.09-0.8,1.04-1.5,2.23-3.11
		c0.67,2,1.46,3.16,1.35,4.23c-0.56,5.72-1.03,11.49-2.12,17.12c-1.17,6-3.59,7.64-9.66,7.65c-20.48,0.05-40.96,0.1-61.45,0.09
		c-1.72,0-3.43-0.48-5.15-0.73c-0.07-0.45-0.13-0.89-0.2-1.34c1.71-0.65,3.41-1.83,5.13-1.85c4.47-0.05,5.5-2.22,5.53-6.31
		c0.18-23.28,0.63-46.56,0.88-69.84c0.05-4.97-3.18-8.32-8.15-8.98c-1.43-0.19-2.88-0.22-4.33-0.32
		C421.61,664.88,421.5,664.35,421.4,663.82z"/>
	<path d="M617.74,880.49c1.1-0.58,2.18-1.6,3.31-1.67c6.61-0.37,8.92-3.34,9.05-11.11c0.37-21.98,0.14-43.97,0.12-65.95
		c0-4.27-1.8-7.24-6.24-8.26c-1.37-0.32-2.64-1.07-3.99-2.74c2.14-0.34,4.28-0.97,6.43-0.98c19.99-0.08,39.97-0.02,59.96-0.11
		c3.94-0.02,5.94,1.47,5.87,5.54c-0.07,4.83,0.12,9.66-0.1,14.48c-0.08,1.78-0.99,3.52-1.81,6.21c-2.77-5.42-4.43-10.13-7.34-13.88
		c-2.13-2.75-5.65-5.34-8.96-6.04c-5.78-1.22-11.87-1.02-17.84-1.24c-3.54-0.13-5.22,1.38-5.08,5.36
		c0.31,8.48,0.07,16.98,0.13,25.48c0.05,7.2,0.98,7.33,7.75,5.49c6.8-1.86,7.83-7.05,9.24-12.39c0.45-1.7,0.74-3.44,2.14-5.28
		c0.6,1.63,1.7,3.26,1.72,4.9c0.15,11.96,0.08,23.92-0.93,36.46c-0.95-1.24-2.15-2.37-2.8-3.75c-0.89-1.92-1.35-4.04-2-6.07
		c-1.62-5.04-7.75-8.73-12.53-7.09c-1.19,0.41-2.45,2.65-2.49,4.08c-0.22,9.82-0.27,19.66,0.05,29.47c0.05,1.47,2.26,4.05,3.56,4.11
		c6.28,0.29,12.63,0.24,18.89-0.36c9.75-0.94,14.54-8.06,18.64-15.9c0.79-1.51,2.23-2.67,3.37-3.99c0.48,1.85,1.55,3.77,1.32,5.52
		c-0.71,5.36-1.95,10.65-2.95,15.98c-0.65,3.5-2.65,5.06-6.25,4.98c-16.91-0.38-33.83-0.78-50.75-0.92
		c-3.58-0.03-7.15,1.17-10.75,1.5c-2.83,0.26-5.71,0.05-8.56,0.05C617.86,881.74,617.8,881.12,617.74,880.49z"/>
	<path d="M734.81,881.82c-9.42,0-18.83,0-28.25,0c-0.16-0.33-0.32-0.66-0.49-0.99c1.19-0.72,2.3-1.67,3.59-2.14
		c6.49-2.34,8.58-5.14,8.59-12.19c0.02-21.12-0.17-42.24,0.08-63.35c0.06-5.22-1.91-8.03-6.6-9.54c-0.97-0.31-1.78-1.14-3.48-2.27
		c2.01-0.72,3.15-1.46,4.29-1.49c6.83-0.14,13.68-0.41,20.48,0.04c2.34,0.15,5.22,1.7,6.73,3.54c7.02,8.55,13.51,17.54,20.44,26.17
		c6.08,7.57,12.48,14.89,18.79,22.27c0.47,0.55,1.36,0.75,2.12,1.15c0.43-0.52,0.98-0.87,0.99-1.23c0.31-12.97,0.55-25.93,0.85-38.9
		c0.12-5.03-2.11-7.96-7.15-8.93c-1.42-0.27-2.67-1.48-3.99-2.27c0.16-0.52,0.33-1.03,0.49-1.55c8.45,0,16.91,0,25.36,0
		c0.27,0.37,0.54,0.73,0.81,1.1c-1.76,1.15-3.44,3.1-5.3,3.3c-4.73,0.49-6.01,2.92-5.99,7.25c0.1,24.64,0.06,49.28,0.03,73.92
		c0,1.9-0.26,3.8-0.39,5.69c-0.46,0.23-0.92,0.47-1.38,0.7c-2.11-2.1-4.44-4.02-6.29-6.33c-11.05-13.82-21.91-27.81-33.01-41.6
		c-5.39-6.69-11.2-13.04-16.71-19.64c-1.67-2-2.95-4.33-4.42-6.5c-0.58,0.27-1.16,0.54-1.74,0.82c0,17.82-0.04,35.65,0.04,53.47
		c0.01,2.95-0.04,6.19,1.11,8.78c1.14,2.59,3.58,4.71,5.76,6.68c1.33,1.21,3.26,1.76,4.92,2.61
		C735,880.87,734.91,881.35,734.81,881.82z"/>
	<path d="M157.12,754.73c0.69-10.43-1.1-20.25,1.11-29.87c0.56-0.1,1.13-0.21,1.69-0.31c0.72,1.49,1.62,2.92,2.12,4.47
		c5.98,18.64,21.41,24.51,36.07,21.26c8.46-1.88,15.51-11.97,6.23-20.53c-6.53-6.02-14.83-10.15-22.5-14.86
		c-4.33-2.66-9.05-4.67-13.46-7.2c-9.05-5.2-13.38-20.78-9.11-30.24c5.58-12.35,19.47-18.29,31.18-17.5
		c3.29,0.22,6.57,1.94,9.67,3.36c4.8,2.2,9.55,3.49,14.74,1.44c0.63-0.25,1.55,0.21,2.97,0.44c-2.53,8.3,1.94,17.17-2.52,25.05
		c-0.51,0.03-1.03,0.07-1.54,0.1c-0.47-1.48-1.17-2.93-1.38-4.45c-1.68-12.64-14.34-22.03-26.85-19.53
		c-3.44,0.69-7.19,1.66-9.91,3.69c-4.84,3.61-5.05,9.62-0.64,13.76c3.56,3.34,7.63,6.27,11.84,8.76c7.76,4.59,15.95,8.45,23.67,13.1
		c8.89,5.36,13.11,13.34,12.81,23.99c-0.29,10.45-9.9,20.48-17.2,23.69c-9.96,4.39-20.03,4.1-30.15-0.22
		c-5.09-2.18-10.61-4.43-15.47,0.98C160.09,754.57,159,754.42,157.12,754.73z"/>
	<path d="M293.02,753.94c-15.59,0-30.04,0-44.5,0c-0.05-0.47-0.1-0.93-0.16-1.4c2.48-0.57,4.94-1.54,7.43-1.61
		c4.25-0.12,5.34-2.53,5.43-6.1c0.17-7.08,0.46-14.17,0.52-21.25c0.16-16.95,0.25-33.89,0.28-50.84c0-1.58-0.64-3.16-1-4.78
		c-8.38-0.52-16.79-1.82-22.06,6.74c-1.8,2.93-3.01,6.21-4.68,9.22c-0.45,0.81-1.61,1.22-2.44,1.81c-0.45-0.97-1.29-1.94-1.27-2.9
		c0.09-4.96,0.66-9.92,0.55-14.87c-0.09-3.9,1.29-5.36,5.19-5.32c13.31,0.14,26.62,0.09,39.93,0.06
		c10.44-0.03,20.88-0.11,31.32-0.24c3.64-0.05,5.71,1.37,5.6,5.21c-0.15,5.38-0.35,10.75-0.52,16.13c-0.6,0.15-1.21,0.3-1.81,0.45
		c-1.46-2.45-3.24-4.76-4.33-7.36c-3.18-7.64-14.47-12.55-21.58-8.8c-1.17,0.62-1.68,3.37-1.69,5.14
		c-0.12,19.99-0.08,39.98-0.08,59.97c0,2,0.15,4.01-0.01,5.99c-0.48,5.86,0.88,10.54,7.25,12.4
		C291.06,751.79,291.55,752.59,293.02,753.94z"/>
	<path d="M453.25,880.4c1.37-0.67,2.68-1.53,4.12-1.97c8.07-2.44,8.82-3.36,8.84-12.01c0.03-12.99,0.01-25.99,0.01-38.98
		c0-9.33-0.15-18.66,0.07-27.98c0.09-3.8-1.32-4.76-4.94-4.83c-12.32-0.21-18.49,2.18-22.43,14.68c-0.35,1.11-1.38,2-2.1,3
		c-0.48-0.09-0.96-0.17-1.44-0.26c0-4.03-0.22-8.08,0.04-12.09c0.66-10.06,0.74-10.11,11.21-10.15c21.32-0.06,42.65-0.08,63.97-0.07
		c5.98,0,7.18,1.75,6.45,7.63c-0.41,3.35,0.14,6.82,0.09,10.23c-0.01,0.86-0.71,1.7-1.1,2.55c-0.97-0.45-2.23-0.67-2.84-1.42
		c-0.91-1.12-1.47-2.57-1.97-3.96c-2.64-7.29-6.65-9.95-14.62-9.58c-9.12,0.42-9.48,0.87-9.42,8.93
		c0.09,14.76,0.04,29.53,0.04,44.29c0,7.29-0.13,14.58,0.03,21.86c0.08,3.91,1.37,7,6.1,7.58c2.26,0.28,4.38,1.61,6.57,2.47
		c-0.11,0.45-0.22,0.89-0.32,1.34c-15.3,0-30.61,0-45.91,0C453.55,881.26,453.4,880.83,453.25,880.4z"/>
	<path d="M577.98,908.63c4.5-0.07,9.98,4.84,10.12,9.07c0.16,4.93-6.24,11.06-11.48,10.98c-4.24-0.06-9.26-4.98-9.39-9.2
		C567.03,913.2,571.46,908.73,577.98,908.63z"/>
	<path d="M542.22,917.62c0.01-4.6,4.76-9.34,9.51-9.5c5-0.16,10.58,5.92,10.46,11.41c-0.07,3.58-6.73,9.14-10.93,9.13
		C546.39,928.65,542.21,923.55,542.22,917.62z"/>
</g>
</svg>
